<mxfile host="app.diagrams.net" agent="Mozilla/5.0 (Windows NT 10.0; Win64; x64) AppleWebKit/537.36 (KHTML, like Gecko) Chrome/141.0.0.0 Safari/537.36" version="28.2.8">
  <diagram name="第 1 页" id="JxmrsgAtOlkpQcSgN4SC">
    <mxGraphModel dx="476" dy="306" grid="1" gridSize="10" guides="1" tooltips="1" connect="1" arrows="1" fold="1" page="1" pageScale="1" pageWidth="827" pageHeight="1169" math="0" shadow="0">
      <root>
        <mxCell id="0" />
        <mxCell id="1" parent="0" />
        <mxCell id="3SUmpe28vQmYJAaQDvu8-3" value="" style="edgeStyle=orthogonalEdgeStyle;rounded=0;orthogonalLoop=1;jettySize=auto;html=1;fontFamily=Comic Sans MS;sketch=1;curveFitting=1;jiggle=2;" parent="1" source="3SUmpe28vQmYJAaQDvu8-1" target="3SUmpe28vQmYJAaQDvu8-2" edge="1">
          <mxGeometry relative="1" as="geometry" />
        </mxCell>
        <mxCell id="3SUmpe28vQmYJAaQDvu8-1" value="STM&lt;div&gt;(structured as Page)&lt;/div&gt;" style="rounded=1;whiteSpace=wrap;html=1;fontFamily=Comic Sans MS;fillColor=#dae8fc;strokeColor=#6c8ebf;sketch=1;curveFitting=1;jiggle=2;" parent="1" vertex="1">
          <mxGeometry x="220" y="330" width="120" height="60" as="geometry" />
        </mxCell>
        <mxCell id="3SUmpe28vQmYJAaQDvu8-5" value="" style="edgeStyle=orthogonalEdgeStyle;rounded=0;orthogonalLoop=1;jettySize=auto;html=1;fontFamily=Comic Sans MS;sketch=1;curveFitting=1;jiggle=2;" parent="1" source="3SUmpe28vQmYJAaQDvu8-2" target="3SUmpe28vQmYJAaQDvu8-4" edge="1">
          <mxGeometry relative="1" as="geometry" />
        </mxCell>
        <mxCell id="3SUmpe28vQmYJAaQDvu8-2" value="MTM&lt;div&gt;(Session/Segment by topic)&lt;/div&gt;" style="whiteSpace=wrap;html=1;rounded=1;fontFamily=Comic Sans MS;fillColor=#dae8fc;strokeColor=#6c8ebf;sketch=1;curveFitting=1;jiggle=2;" parent="1" vertex="1">
          <mxGeometry x="432" y="330" width="120" height="60" as="geometry" />
        </mxCell>
        <mxCell id="3SUmpe28vQmYJAaQDvu8-4" value="LTM&lt;div&gt;(UserProfile)&lt;/div&gt;" style="whiteSpace=wrap;html=1;rounded=1;fontFamily=Comic Sans MS;fillColor=#dae8fc;strokeColor=#6c8ebf;sketch=1;curveFitting=1;jiggle=2;" parent="1" vertex="1">
          <mxGeometry x="651" y="330" width="120" height="60" as="geometry" />
        </mxCell>
        <mxCell id="3SUmpe28vQmYJAaQDvu8-46" style="edgeStyle=orthogonalEdgeStyle;rounded=0;orthogonalLoop=1;jettySize=auto;html=1;dashed=1;curved=1;fontFamily=Comic Sans MS;sketch=1;curveFitting=1;jiggle=2;" parent="1" source="3SUmpe28vQmYJAaQDvu8-12" edge="1">
          <mxGeometry relative="1" as="geometry">
            <mxPoint x="380" y="360" as="targetPoint" />
          </mxGeometry>
        </mxCell>
        <mxCell id="3SUmpe28vQmYJAaQDvu8-12" value="1.&amp;nbsp;&lt;span style=&quot;&quot;&gt;提取 Query 子主题&lt;/span&gt;&lt;div&gt;&lt;span style=&quot;&quot;&gt;2.&amp;nbsp;&lt;/span&gt;&lt;span style=&quot;background-color: transparent; color: light-dark(rgb(0, 0, 0), rgb(255, 255, 255));&quot;&gt;根据子主题匹配 Session，&lt;/span&gt;&lt;/div&gt;&lt;div&gt;&lt;span style=&quot;background-color: transparent; color: light-dark(rgb(0, 0, 0), rgb(255, 255, 255));&quot;&gt;&amp;nbsp; 匹配成功则将 Query 追加到该 Session。&lt;/span&gt;&lt;/div&gt;&lt;div&gt;&lt;span style=&quot;background-color: transparent; color: light-dark(rgb(0, 0, 0), rgb(255, 255, 255));&quot;&gt;&amp;nbsp; 匹配失败则为 Query 创建新 Session。&lt;/span&gt;&lt;/div&gt;" style="rounded=0;whiteSpace=wrap;html=1;align=left;fontFamily=Comic Sans MS;fillColor=#dae8fc;strokeColor=#6c8ebf;sketch=1;curveFitting=1;jiggle=2;" parent="1" vertex="1">
          <mxGeometry x="258" y="240" width="230" height="70" as="geometry" />
        </mxCell>
        <mxCell id="3SUmpe28vQmYJAaQDvu8-38" value="" style="edgeStyle=orthogonalEdgeStyle;rounded=0;orthogonalLoop=1;jettySize=auto;html=1;fontFamily=Comic Sans MS;sketch=1;curveFitting=1;jiggle=2;" parent="1" source="3SUmpe28vQmYJAaQDvu8-36" target="3SUmpe28vQmYJAaQDvu8-1" edge="1">
          <mxGeometry relative="1" as="geometry" />
        </mxCell>
        <mxCell id="3SUmpe28vQmYJAaQDvu8-36" value="QA Pair" style="rounded=1;whiteSpace=wrap;html=1;fontFamily=Comic Sans MS;fillColor=#dae8fc;strokeColor=#6c8ebf;sketch=1;curveFitting=1;jiggle=2;" parent="1" vertex="1">
          <mxGeometry x="41" y="330" width="120" height="60" as="geometry" />
        </mxCell>
        <mxCell id="3SUmpe28vQmYJAaQDvu8-40" value="1. STM去噪优化&lt;div&gt;2. 信息量评估&lt;/div&gt;" style="shape=callout;whiteSpace=wrap;html=1;perimeter=calloutPerimeter;flipH=1;flipV=1;position2=0.5;base=10;size=30;position=0.6;fontStyle=1;fontFamily=Comic Sans MS;fillColor=#d5e8d4;strokeColor=#82b366;sketch=1;curveFitting=1;jiggle=2;" parent="1" vertex="1">
          <mxGeometry x="139" y="367" width="100" height="73" as="geometry" />
        </mxCell>
        <mxCell id="3SUmpe28vQmYJAaQDvu8-41" value="&lt;div data-docx-has-block-data=&quot;false&quot; data-lark-html-role=&quot;root&quot; data-page-id=&quot;UxaOdFDGDo1WnnxAF18cjjznnxe&quot;&gt;&lt;div class=&quot;old-record-id-DgZwdlZkKonJOuxhVUdcf2nPnTf&quot;&gt;&lt;strong&gt;1. MTM的动态抽象&lt;/strong&gt;&lt;/div&gt;&lt;div class=&quot;old-record-id-DgZwdlZkKonJOuxhVUdcf2nPnTf&quot;&gt;&lt;strong&gt;2. MTM时间边界划分&lt;/strong&gt;&lt;/div&gt;&lt;/div&gt;&lt;span class=&quot;lark-record-clipboard&quot; data-lark-record-format=&quot;docx/text&quot; data-lark-record-data=&quot;{&amp;quot;rootId&amp;quot;:&amp;quot;UxaOdFDGDo1WnnxAF18cjjznnxe&amp;quot;,&amp;quot;text&amp;quot;:{&amp;quot;initialAttributedTexts&amp;quot;:{&amp;quot;text&amp;quot;:{&amp;quot;0&amp;quot;:&amp;quot;MTM的动态抽象&amp;quot;},&amp;quot;attribs&amp;quot;:{&amp;quot;0&amp;quot;:&amp;quot;*1*0+8&amp;quot;}},&amp;quot;apool&amp;quot;:{&amp;quot;numToAttrib&amp;quot;:{&amp;quot;0&amp;quot;:[&amp;quot;bold&amp;quot;,&amp;quot;true&amp;quot;],&amp;quot;1&amp;quot;:[&amp;quot;author&amp;quot;,&amp;quot;7543449489537794050&amp;quot;]},&amp;quot;nextNum&amp;quot;:2}},&amp;quot;type&amp;quot;:&amp;quot;text&amp;quot;,&amp;quot;referenceRecordMap&amp;quot;:{},&amp;quot;extra&amp;quot;:{&amp;quot;channel&amp;quot;:&amp;quot;saas&amp;quot;,&amp;quot;isEqualBlockSelection&amp;quot;:false,&amp;quot;pasteRandomId&amp;quot;:&amp;quot;55e6cb3b-ba7a-46e4-9412-7d4e23a044cb&amp;quot;,&amp;quot;mention_page_title&amp;quot;:{},&amp;quot;external_mention_url&amp;quot;:{}},&amp;quot;isKeepQuoteContainer&amp;quot;:false,&amp;quot;isFromCode&amp;quot;:false,&amp;quot;selection&amp;quot;:[{&amp;quot;id&amp;quot;:137,&amp;quot;type&amp;quot;:&amp;quot;text&amp;quot;,&amp;quot;selection&amp;quot;:{&amp;quot;start&amp;quot;:0,&amp;quot;end&amp;quot;:8},&amp;quot;recordId&amp;quot;:&amp;quot;DgZwdlZkKonJOuxhVUdcf2nPnTf&amp;quot;}],&amp;quot;payloadMap&amp;quot;:{},&amp;quot;isCut&amp;quot;:false}&quot;&gt;&lt;/span&gt;" style="shape=callout;whiteSpace=wrap;html=1;perimeter=calloutPerimeter;flipH=1;flipV=1;position2=0.5;base=10;size=30;position=0.6;fontFamily=Comic Sans MS;fillColor=#d5e8d4;strokeColor=#82b366;sketch=1;curveFitting=1;jiggle=2;" parent="1" vertex="1">
          <mxGeometry x="320" y="367" width="129" height="70" as="geometry" />
        </mxCell>
        <mxCell id="3SUmpe28vQmYJAaQDvu8-43" value="&lt;div data-docx-has-block-data=&quot;false&quot; data-lark-html-role=&quot;root&quot; data-page-id=&quot;UxaOdFDGDo1WnnxAF18cjjznnxe&quot;&gt;&lt;div class=&quot;old-record-id-DgZwdlZkKonJOuxhVUdcf2nPnTf&quot;&gt;&lt;b&gt;1. LTM细化更新粒度&lt;/b&gt;&lt;/div&gt;&lt;div class=&quot;old-record-id-DgZwdlZkKonJOuxhVUdcf2nPnTf&quot;&gt;&lt;b&gt;2. 丰富热度计算&lt;/b&gt;&lt;/div&gt;&lt;/div&gt;&lt;span class=&quot;lark-record-clipboard&quot; data-lark-record-format=&quot;docx/text&quot; data-lark-record-data=&quot;{&amp;quot;rootId&amp;quot;:&amp;quot;UxaOdFDGDo1WnnxAF18cjjznnxe&amp;quot;,&amp;quot;text&amp;quot;:{&amp;quot;initialAttributedTexts&amp;quot;:{&amp;quot;text&amp;quot;:{&amp;quot;0&amp;quot;:&amp;quot;MTM的动态抽象&amp;quot;},&amp;quot;attribs&amp;quot;:{&amp;quot;0&amp;quot;:&amp;quot;*1*0+8&amp;quot;}},&amp;quot;apool&amp;quot;:{&amp;quot;numToAttrib&amp;quot;:{&amp;quot;0&amp;quot;:[&amp;quot;bold&amp;quot;,&amp;quot;true&amp;quot;],&amp;quot;1&amp;quot;:[&amp;quot;author&amp;quot;,&amp;quot;7543449489537794050&amp;quot;]},&amp;quot;nextNum&amp;quot;:2}},&amp;quot;type&amp;quot;:&amp;quot;text&amp;quot;,&amp;quot;referenceRecordMap&amp;quot;:{},&amp;quot;extra&amp;quot;:{&amp;quot;channel&amp;quot;:&amp;quot;saas&amp;quot;,&amp;quot;isEqualBlockSelection&amp;quot;:false,&amp;quot;pasteRandomId&amp;quot;:&amp;quot;55e6cb3b-ba7a-46e4-9412-7d4e23a044cb&amp;quot;,&amp;quot;mention_page_title&amp;quot;:{},&amp;quot;external_mention_url&amp;quot;:{}},&amp;quot;isKeepQuoteContainer&amp;quot;:false,&amp;quot;isFromCode&amp;quot;:false,&amp;quot;selection&amp;quot;:[{&amp;quot;id&amp;quot;:137,&amp;quot;type&amp;quot;:&amp;quot;text&amp;quot;,&amp;quot;selection&amp;quot;:{&amp;quot;start&amp;quot;:0,&amp;quot;end&amp;quot;:8},&amp;quot;recordId&amp;quot;:&amp;quot;DgZwdlZkKonJOuxhVUdcf2nPnTf&amp;quot;}],&amp;quot;payloadMap&amp;quot;:{},&amp;quot;isCut&amp;quot;:false}&quot;&gt;&lt;/span&gt;" style="shape=callout;whiteSpace=wrap;html=1;perimeter=calloutPerimeter;flipH=1;flipV=1;position2=0.5;base=10;size=30;position=0.6;fontFamily=Comic Sans MS;fillColor=#d5e8d4;strokeColor=#82b366;sketch=1;curveFitting=1;jiggle=2;" parent="1" vertex="1">
          <mxGeometry x="543" y="365" width="120" height="73" as="geometry" />
        </mxCell>
        <mxCell id="3SUmpe28vQmYJAaQDvu8-44" value="&lt;div data-page-id=&quot;UxaOdFDGDo1WnnxAF18cjjznnxe&quot; data-lark-html-role=&quot;root&quot; data-docx-has-block-data=&quot;false&quot;&gt;&lt;div class=&quot;old-record-id-DgZwdlZkKonJOuxhVUdcf2nPnTf&quot;&gt;&lt;div data-page-id=&quot;UxaOdFDGDo1WnnxAF18cjjznnxe&quot; data-lark-html-role=&quot;root&quot; data-docx-has-block-data=&quot;false&quot;&gt;&lt;div class=&quot;old-record-id-CFHTdMkW9oqmNQxcY86cLVa0nhd&quot;&gt;&lt;strong&gt;LTM结构优化&lt;/strong&gt;&lt;/div&gt;&lt;/div&gt;&lt;span data-lark-record-data=&quot;{&amp;quot;rootId&amp;quot;:&amp;quot;UxaOdFDGDo1WnnxAF18cjjznnxe&amp;quot;,&amp;quot;text&amp;quot;:{&amp;quot;initialAttributedTexts&amp;quot;:{&amp;quot;text&amp;quot;:{&amp;quot;0&amp;quot;:&amp;quot;LTM结构优化&amp;quot;},&amp;quot;attribs&amp;quot;:{&amp;quot;0&amp;quot;:&amp;quot;*1*0+7&amp;quot;}},&amp;quot;apool&amp;quot;:{&amp;quot;numToAttrib&amp;quot;:{&amp;quot;0&amp;quot;:[&amp;quot;bold&amp;quot;,&amp;quot;true&amp;quot;],&amp;quot;1&amp;quot;:[&amp;quot;author&amp;quot;,&amp;quot;7543449489537794050&amp;quot;]},&amp;quot;nextNum&amp;quot;:2}},&amp;quot;type&amp;quot;:&amp;quot;text&amp;quot;,&amp;quot;referenceRecordMap&amp;quot;:{},&amp;quot;extra&amp;quot;:{&amp;quot;channel&amp;quot;:&amp;quot;saas&amp;quot;,&amp;quot;isEqualBlockSelection&amp;quot;:false,&amp;quot;pasteRandomId&amp;quot;:&amp;quot;8f414a45-b7fd-4c1f-af70-e5bcc631b4d7&amp;quot;,&amp;quot;mention_page_title&amp;quot;:{},&amp;quot;external_mention_url&amp;quot;:{}},&amp;quot;isKeepQuoteContainer&amp;quot;:false,&amp;quot;isFromCode&amp;quot;:false,&amp;quot;selection&amp;quot;:[{&amp;quot;id&amp;quot;:133,&amp;quot;type&amp;quot;:&amp;quot;text&amp;quot;,&amp;quot;selection&amp;quot;:{&amp;quot;start&amp;quot;:0,&amp;quot;end&amp;quot;:7},&amp;quot;recordId&amp;quot;:&amp;quot;CFHTdMkW9oqmNQxcY86cLVa0nhd&amp;quot;}],&amp;quot;payloadMap&amp;quot;:{},&amp;quot;isCut&amp;quot;:false}&quot; data-lark-record-format=&quot;docx/text&quot; class=&quot;lark-record-clipboard&quot;&gt;&lt;/span&gt;&lt;/div&gt;&lt;/div&gt;&lt;span data-lark-record-data=&quot;{&amp;quot;rootId&amp;quot;:&amp;quot;UxaOdFDGDo1WnnxAF18cjjznnxe&amp;quot;,&amp;quot;text&amp;quot;:{&amp;quot;initialAttributedTexts&amp;quot;:{&amp;quot;text&amp;quot;:{&amp;quot;0&amp;quot;:&amp;quot;MTM的动态抽象&amp;quot;},&amp;quot;attribs&amp;quot;:{&amp;quot;0&amp;quot;:&amp;quot;*1*0+8&amp;quot;}},&amp;quot;apool&amp;quot;:{&amp;quot;numToAttrib&amp;quot;:{&amp;quot;0&amp;quot;:[&amp;quot;bold&amp;quot;,&amp;quot;true&amp;quot;],&amp;quot;1&amp;quot;:[&amp;quot;author&amp;quot;,&amp;quot;7543449489537794050&amp;quot;]},&amp;quot;nextNum&amp;quot;:2}},&amp;quot;type&amp;quot;:&amp;quot;text&amp;quot;,&amp;quot;referenceRecordMap&amp;quot;:{},&amp;quot;extra&amp;quot;:{&amp;quot;channel&amp;quot;:&amp;quot;saas&amp;quot;,&amp;quot;isEqualBlockSelection&amp;quot;:false,&amp;quot;pasteRandomId&amp;quot;:&amp;quot;55e6cb3b-ba7a-46e4-9412-7d4e23a044cb&amp;quot;,&amp;quot;mention_page_title&amp;quot;:{},&amp;quot;external_mention_url&amp;quot;:{}},&amp;quot;isKeepQuoteContainer&amp;quot;:false,&amp;quot;isFromCode&amp;quot;:false,&amp;quot;selection&amp;quot;:[{&amp;quot;id&amp;quot;:137,&amp;quot;type&amp;quot;:&amp;quot;text&amp;quot;,&amp;quot;selection&amp;quot;:{&amp;quot;start&amp;quot;:0,&amp;quot;end&amp;quot;:8},&amp;quot;recordId&amp;quot;:&amp;quot;DgZwdlZkKonJOuxhVUdcf2nPnTf&amp;quot;}],&amp;quot;payloadMap&amp;quot;:{},&amp;quot;isCut&amp;quot;:false}&quot; data-lark-record-format=&quot;docx/text&quot; class=&quot;lark-record-clipboard&quot;&gt;&lt;/span&gt;" style="shape=callout;whiteSpace=wrap;html=1;perimeter=calloutPerimeter;flipH=1;flipV=1;position2=0.67;base=12;size=20;position=0.58;fontFamily=Comic Sans MS;fillColor=#d5e8d4;strokeColor=#82b366;sketch=1;curveFitting=1;jiggle=2;" parent="1" vertex="1">
          <mxGeometry x="670" y="390" width="100" height="50" as="geometry" />
        </mxCell>
        <mxCell id="3SUmpe28vQmYJAaQDvu8-47" style="edgeStyle=orthogonalEdgeStyle;rounded=0;orthogonalLoop=1;jettySize=auto;html=1;dashed=1;curved=1;fontFamily=Comic Sans MS;sketch=1;curveFitting=1;jiggle=2;" parent="1" source="3SUmpe28vQmYJAaQDvu8-45" edge="1">
          <mxGeometry relative="1" as="geometry">
            <mxPoint x="600" y="360" as="targetPoint" />
          </mxGeometry>
        </mxCell>
        <mxCell id="3SUmpe28vQmYJAaQDvu8-45" value="1. 找出 MTM 中热度超过阈值的 Memory&lt;div&gt;&lt;span style=&quot;&quot;&gt;2.&amp;nbsp;&lt;/span&gt;&lt;span style=&quot;background-color: transparent; color: light-dark(rgb(0, 0, 0), rgb(255, 255, 255));&quot;&gt;基于该 Memory 创建 New User Profile&lt;/span&gt;&lt;/div&gt;&lt;div&gt;&lt;span style=&quot;background-color: transparent; color: light-dark(rgb(0, 0, 0), rgb(255, 255, 255));&quot;&gt;3.&amp;nbsp;&lt;/span&gt;&lt;span style=&quot;background-color: transparent; color: light-dark(rgb(0, 0, 0), rgb(255, 255, 255));&quot;&gt;将这个 New Profile 融入 Old User Profile&lt;/span&gt;&lt;/div&gt;" style="rounded=0;whiteSpace=wrap;html=1;align=left;fontFamily=Comic Sans MS;fillColor=#dae8fc;strokeColor=#6c8ebf;sketch=1;curveFitting=1;jiggle=2;" parent="1" vertex="1">
          <mxGeometry x="492" y="240" width="248" height="70" as="geometry" />
        </mxCell>
        <mxCell id="Ehs02zWBeiv2u96ycuQ0-1" style="edgeStyle=orthogonalEdgeStyle;rounded=0;orthogonalLoop=1;jettySize=auto;html=1;entryX=0.7;entryY=0.001;entryDx=0;entryDy=0;entryPerimeter=0;curved=1;exitX=0.5;exitY=0;exitDx=0;exitDy=0;exitPerimeter=0;dashed=1;" edge="1" parent="1" source="3SUmpe28vQmYJAaQDvu8-40" target="3SUmpe28vQmYJAaQDvu8-44">
          <mxGeometry relative="1" as="geometry">
            <Array as="points">
              <mxPoint x="189" y="460" />
              <mxPoint x="210" y="460" />
              <mxPoint x="210" y="466" />
              <mxPoint x="700" y="466" />
            </Array>
          </mxGeometry>
        </mxCell>
      </root>
    </mxGraphModel>
  </diagram>
</mxfile>
